<svg xmlns="http://www.w3.org/2000/svg" viewBox="0 0 1200 820" role="img">
  <defs>
    <linearGradient id="sky" x1="0" x2="1" y1="0" y2="1">
      <stop offset="0" stop-color="#f7f1df"/>
      <stop offset=".58" stop-color="#dfead9"/>
      <stop offset="1" stop-color="#efc75e"/>
    </linearGradient>
    <linearGradient id="table" x1="0" x2="1">
      <stop offset="0" stop-color="#214334"/>
      <stop offset="1" stop-color="#6f9a61"/>
    </linearGradient>
    <pattern id="grain" width="18" height="18" patternUnits="userSpaceOnUse">
      <path d="M0 18 18 0" stroke="#101711" stroke-opacity=".05"/>
    </pattern>
  </defs>
  <rect width="1200" height="820" fill="url(#sky)"/>
  <rect width="1200" height="820" fill="url(#grain)"/>
  <path d="M0 560c150-74 260-62 372-22 143 52 283 25 410-36 122-58 242-76 418 14v304H0z" fill="#214334"/>
  <path d="M0 625c178-70 316-72 450-30 163 51 305 25 458-35 96-38 184-43 292 6v254H0z" fill="#315b44"/>
  <g fill="#101711">
    <path d="M55 519h46v-95h50v95h43V374h50v145h52V321h54v198h47V403h49v116h51V284h66v235h49V377h51v142h54V335h64v184h44V421h55v98h46V390h50v129h67v51H55z"/>
  </g>
  <ellipse cx="600" cy="600" rx="338" ry="93" fill="url(#table)"/>
  <ellipse cx="600" cy="573" rx="282" ry="48" fill="#f7f1df" opacity=".72"/>
  <g stroke="#101711" stroke-width="8" stroke-linecap="round" stroke-linejoin="round">
    <g fill="#efc75e">
      <circle cx="362" cy="477" r="54"/>
      <path d="M300 627c16-89 40-130 73-130s57 41 73 130z"/>
    </g>
    <g fill="#d95f43">
      <circle cx="520" cy="435" r="55"/>
      <path d="M456 628c18-111 42-161 75-161s58 50 75 161z"/>
    </g>
    <g fill="#6f9a61">
      <circle cx="686" cy="446" r="57"/>
      <path d="M619 628c18-104 43-151 78-151s60 47 78 151z"/>
    </g>
    <g fill="#5fb7ad">
      <circle cx="846" cy="488" r="53"/>
      <path d="M785 628c16-82 40-120 72-120s55 38 72 120z"/>
    </g>
  </g>
  <g fill="none" stroke="#efc75e" stroke-linecap="round" stroke-linejoin="round">
    <circle cx="600" cy="214" r="92" stroke-width="10"/>
    <circle cx="600" cy="214" r="30" stroke-width="8"/>
    <path d="M600 92v42M600 294v42M478 214h42M680 214h42M514 128l30 30M656 270l30 30M686 128l-30 30M544 270l-30 30" stroke-width="8"/>
  </g>
</svg>
