<svg xmlns="http://www.w3.org/2000/svg" viewBox="0 0 1200 820" role="img">
  <defs>
    <linearGradient id="room" x1="0" x2="1" y1="0" y2="1">
      <stop offset="0" stop-color="#f7f1df"/>
      <stop offset=".56" stop-color="#e5ece3"/>
      <stop offset="1" stop-color="#6f9a61"/>
    </linearGradient>
  </defs>
  <rect width="1200" height="820" fill="url(#room)"/>
  <path d="M0 648h1200v172H0z" fill="#214334"/>
  <rect x="152" y="137" width="896" height="360" rx="36" fill="#fff9ed" stroke="#101711" stroke-width="8"/>
  <path d="M211 254h265M211 326h390M211 398h318" stroke="#214334" stroke-width="22" stroke-linecap="round"/>
  <g fill="none" stroke="#d95f43" stroke-width="12" stroke-linecap="round" stroke-linejoin="round">
    <path d="M760 340 827 272l58 42 82-104"/>
    <path d="M760 424h210"/>
  </g>
  <rect x="246" y="585" width="708" height="94" rx="34" fill="#101711"/>
  <g stroke="#101711" stroke-width="8" stroke-linecap="round" stroke-linejoin="round">
    <g fill="#efc75e">
      <circle cx="326" cy="520" r="48"/>
      <path d="M271 648c14-76 36-109 66-109s52 33 66 109z"/>
    </g>
    <g fill="#5fb7ad">
      <circle cx="514" cy="505" r="50"/>
      <path d="M456 648c15-88 38-127 70-127s54 39 70 127z"/>
    </g>
    <g fill="#d95f43">
      <circle cx="694" cy="505" r="50"/>
      <path d="M636 648c15-88 38-127 70-127s54 39 70 127z"/>
    </g>
    <g fill="#6f9a61">
      <circle cx="874" cy="520" r="48"/>
      <path d="M819 648c14-76 36-109 66-109s52 33 66 109z"/>
    </g>
  </g>
</svg>
