<svg xmlns="http://www.w3.org/2000/svg" viewBox="0 0 1200 720" role="img">
  <defs>
    <linearGradient id="paper" x1="0" x2="1" y1="0" y2="1">
      <stop offset="0" stop-color="#fff9ed"/>
      <stop offset=".55" stop-color="#e5ece3"/>
      <stop offset="1" stop-color="#efc75e"/>
    </linearGradient>
    <pattern id="grid" width="42" height="42" patternUnits="userSpaceOnUse">
      <path d="M42 0H0v42" fill="none" stroke="#101711" stroke-opacity=".08"/>
    </pattern>
  </defs>
  <rect width="1200" height="720" fill="url(#paper)"/>
  <rect width="1200" height="720" fill="url(#grid)"/>
  <path d="M0 520c176-92 330-88 462-40 170 62 331 36 480-37 93-45 175-55 258-24v301H0z" fill="#214334"/>
  <g fill="#101711">
    <path d="M76 492h46v-92h50v92h42V351h50v141h50V302h56v190h44V381h50v111h50V272h66v220h48V365h50v127h52V318h64v174h44v-92h56v92h45V374h51v118h68v52H76z"/>
  </g>
  <g transform="translate(710 126)">
    <rect x="0" y="0" width="330" height="408" rx="22" fill="#fff9ed" stroke="#101711" stroke-width="10"/>
    <path d="M58 82h214M58 144h214M58 206h166M58 268h214" stroke="#214334" stroke-width="20" stroke-linecap="round"/>
    <path d="m88 344 42 42 116-138" fill="none" stroke="#d95f43" stroke-width="24" stroke-linecap="round" stroke-linejoin="round"/>
  </g>
  <g transform="translate(205 118)" fill="none" stroke="#efc75e" stroke-linecap="round" stroke-linejoin="round">
    <circle cx="170" cy="170" r="130" stroke-width="14"/>
    <path d="M170 38v64M170 238v64M38 170h64M238 170h64M77 77l45 45M218 218l45 45M263 77l-45 45M122 218l-45 45" stroke-width="12"/>
    <circle cx="170" cy="170" r="44" stroke-width="12"/>
  </g>
</svg>
